<svg width="46" height="50" viewBox="0 0 46 50" fill="none" xmlns="http://www.w3.org/2000/svg">
<path d="M23.0004 0C22.031 0 21.2453 0.785714 21.2453 1.7551V35.551L15.2453 29.551C14.5616 28.8673 13.4494 28.8673 12.7657 29.551C12.082 30.2347 12.082 31.3469 12.7657 32.0306L21.7555 41.0204C22.0922 41.3571 22.5412 41.5306 22.9902 41.5306C23.4392 41.5306 23.8881 41.3571 24.2249 41.0204L33.2147 32.0306C33.8983 31.3469 33.8983 30.2347 33.2147 29.551C32.531 28.8673 31.4187 28.8673 30.7351 29.551L24.7351 35.551V1.7449C24.7453 0.77551 23.9698 0 23.0004 0Z" fill="white"/>
<path d="M45.1533 48.2551V38.0816C45.1533 37.1123 44.3676 36.3265 43.3982 36.3265C42.4288 36.3265 41.6431 37.1123 41.6431 38.0816V46.5102H4.34717V38.0816C4.34717 37.1123 3.56145 36.3265 2.60227 36.3265C1.64309 36.3265 0.847168 37.1123 0.847168 38.0816V48.2551C0.847168 49.2245 1.63288 50 2.60227 50H43.3982C44.3676 50 45.1533 49.2245 45.1533 48.2551Z" fill="white"/>
</svg>
