<svg width="40" height="40" viewBox="0 0 40 40" fill="none" xmlns="http://www.w3.org/2000/svg">
<path d="M38.8365 5.18473V4.55603C38.8365 2.04123 36.7953 0 34.2805 0C31.7657 0 29.7245 2.04123 29.7245 4.55603V5.18473H38.8365Z" fill="#404040"/>
<path d="M28.2139 35.8849H3.20475C2.06982 35.8849 1.14719 36.8075 1.14719 37.9425C1.14719 39.0774 2.06982 40 3.20475 40H31.039L28.2139 35.8849Z" fill="#404040"/>
<path d="M27.0627 11.2104H3.20475C2.06982 11.2104 1.14719 12.1331 1.14719 13.268C1.14719 14.4029 2.06982 15.3256 3.20475 15.3256H27.0627V11.2104Z" fill="#404040"/>
<path d="M27.0627 19.4326H3.20475C2.06982 19.4326 1.14719 20.3552 1.14719 21.4901C1.14719 22.625 2.06982 23.5477 3.20475 23.5477H27.0627V19.4326Z" fill="#404040"/>
<path d="M27.0627 27.6546H3.20475C2.06982 27.6546 1.14719 28.5772 1.14719 29.7122C1.14719 30.8471 2.06982 31.7697 3.20475 31.7697H27.0627V27.6546Z" fill="#404040"/>
<path d="M29.7326 7.85468V33.4027L33.8804 39.3958C34.0764 39.6816 34.5009 39.6816 34.705 39.3958L38.8528 33.4027V7.85468H29.7326Z" fill="#404040"/>
</svg>
