<svg width="195" height="67" viewBox="0 0 195 67" fill="none" xmlns="http://www.w3.org/2000/svg">
<path d="M55.0123 20.171L40.4956 5.65437C40.0758 5.2345 39.5085 5 38.9167 5H15.4667C12.9988 5 11 6.99883 11 9.46667V58.6C11 61.0678 12.9988 63.0667 15.4667 63.0667H51.2C53.6678 63.0667 55.6667 61.0678 55.6667 58.6V21.75C55.6667 21.1582 55.4322 20.5909 55.0123 20.171ZM40.0333 47.4333H22.1667C20.9339 47.4333 19.9333 46.4328 19.9333 45.2C19.9333 43.9672 20.9339 42.9667 22.1667 42.9667H40.0333C41.2661 42.9667 42.2667 43.9672 42.2667 45.2C42.2667 46.4328 41.2661 47.4333 40.0333 47.4333ZM44.5 38.5H22.1667C20.9339 38.5 19.9333 37.4995 19.9333 36.2667C19.9333 35.0339 20.9339 34.0333 22.1667 34.0333H44.5C45.7328 34.0333 46.7333 35.0339 46.7333 36.2667C46.7333 37.4995 45.7328 38.5 44.5 38.5ZM40.0333 22.8667C38.8005 22.8667 37.8 21.8661 37.8 20.6333V9.25227L51.4144 22.8667H40.0333Z" fill="#404040"/>
<path d="M68.7699 44V23.6364H76.804C78.3485 23.6364 79.6643 23.9313 80.7514 24.5213C81.8385 25.1046 82.6671 25.9167 83.2372 26.9574C83.8139 27.9915 84.1023 29.1847 84.1023 30.5369C84.1023 31.8892 83.8106 33.0824 83.2273 34.1165C82.6439 35.1506 81.7988 35.956 80.6918 36.5327C79.5914 37.1094 78.259 37.3977 76.6946 37.3977H71.5739V33.9474H75.9986C76.8272 33.9474 77.5099 33.8049 78.0469 33.5199C78.5904 33.2282 78.9948 32.8272 79.2599 32.3168C79.5317 31.7997 79.6676 31.2064 79.6676 30.5369C79.6676 29.8608 79.5317 29.2708 79.2599 28.767C78.9948 28.2566 78.5904 27.8622 78.0469 27.5838C77.5033 27.2988 76.8139 27.1562 75.9787 27.1562H73.0753V44H68.7699ZM86.8192 44V28.7273H90.9258V31.392H91.0849C91.3633 30.4441 91.8306 29.7282 92.4869 29.2443C93.1431 28.7538 93.8988 28.5085 94.7539 28.5085C94.966 28.5085 95.1947 28.5218 95.44 28.5483C95.6853 28.5748 95.9007 28.6113 96.0863 28.6577V32.4162C95.8874 32.3565 95.6123 32.3035 95.261 32.2571C94.9097 32.2107 94.5882 32.1875 94.2965 32.1875C93.6734 32.1875 93.1166 32.3234 92.6261 32.5952C92.1422 32.8603 91.7577 33.2315 91.4727 33.7088C91.1942 34.1861 91.055 34.7363 91.055 35.3594V44H86.8192ZM104.466 44.2983C102.921 44.2983 101.586 43.9702 100.459 43.3139C99.3385 42.651 98.4735 41.7296 97.8636 40.5497C97.2538 39.3632 96.9489 37.9877 96.9489 36.4233C96.9489 34.8456 97.2538 33.4669 97.8636 32.2869C98.4735 31.1004 99.3385 30.179 100.459 29.5227C101.586 28.8598 102.921 28.5284 104.466 28.5284C106.01 28.5284 107.343 28.8598 108.463 29.5227C109.59 30.179 110.458 31.1004 111.068 32.2869C111.678 33.4669 111.983 34.8456 111.983 36.4233C111.983 37.9877 111.678 39.3632 111.068 40.5497C110.458 41.7296 109.59 42.651 108.463 43.3139C107.343 43.9702 106.01 44.2983 104.466 44.2983ZM104.486 41.017C105.188 41.017 105.775 40.8182 106.246 40.4205C106.716 40.0161 107.071 39.4659 107.31 38.7699C107.555 38.0739 107.678 37.2817 107.678 36.3935C107.678 35.5052 107.555 34.7131 107.31 34.017C107.071 33.321 106.716 32.7708 106.246 32.3665C105.775 31.9621 105.188 31.7599 104.486 31.7599C103.777 31.7599 103.18 31.9621 102.696 32.3665C102.219 32.7708 101.857 33.321 101.612 34.017C101.374 34.7131 101.254 35.5052 101.254 36.3935C101.254 37.2817 101.374 38.0739 101.612 38.7699C101.857 39.4659 102.219 40.0161 102.696 40.4205C103.18 40.8182 103.777 41.017 104.486 41.017ZM122.036 44H114.817V23.6364H122.095C124.143 23.6364 125.907 24.044 127.385 24.8594C128.863 25.6681 130 26.8314 130.795 28.3494C131.598 29.8674 131.999 31.6837 131.999 33.7983C131.999 35.9195 131.598 37.7424 130.795 39.267C130 40.7917 128.857 41.9616 127.365 42.777C125.88 43.5923 124.104 44 122.036 44ZM119.122 40.3111H121.857C123.129 40.3111 124.2 40.0857 125.068 39.6349C125.943 39.1776 126.599 38.4716 127.037 37.517C127.481 36.5559 127.703 35.3163 127.703 33.7983C127.703 32.2936 127.481 31.0639 127.037 30.1094C126.599 29.1548 125.946 28.4522 125.078 28.0014C124.21 27.5507 123.139 27.3253 121.866 27.3253H119.122V40.3111ZM142.009 44.2983C140.464 44.2983 139.129 43.9702 138.002 43.3139C136.882 42.651 136.016 41.7296 135.407 40.5497C134.797 39.3632 134.492 37.9877 134.492 36.4233C134.492 34.8456 134.797 33.4669 135.407 32.2869C136.016 31.1004 136.882 30.179 138.002 29.5227C139.129 28.8598 140.464 28.5284 142.009 28.5284C143.553 28.5284 144.886 28.8598 146.006 29.5227C147.133 30.179 148.001 31.1004 148.611 32.2869C149.221 33.4669 149.526 34.8456 149.526 36.4233C149.526 37.9877 149.221 39.3632 148.611 40.5497C148.001 41.7296 147.133 42.651 146.006 43.3139C144.886 43.9702 143.553 44.2983 142.009 44.2983ZM142.029 41.017C142.731 41.017 143.318 40.8182 143.789 40.4205C144.259 40.0161 144.614 39.4659 144.853 38.7699C145.098 38.0739 145.221 37.2817 145.221 36.3935C145.221 35.5052 145.098 34.7131 144.853 34.017C144.614 33.321 144.259 32.7708 143.789 32.3665C143.318 31.9621 142.731 31.7599 142.029 31.7599C141.319 31.7599 140.723 31.9621 140.239 32.3665C139.762 32.7708 139.4 33.321 139.155 34.017C138.917 34.7131 138.797 35.5052 138.797 36.3935C138.797 37.2817 138.917 38.0739 139.155 38.7699C139.4 39.4659 139.762 40.0161 140.239 40.4205C140.723 40.8182 141.319 41.017 142.029 41.017ZM159.181 44.2983C157.616 44.2983 156.271 43.9669 155.144 43.304C154.024 42.6345 153.162 41.7064 152.559 40.5199C151.962 39.3333 151.664 37.9678 151.664 36.4233C151.664 34.8589 151.965 33.4867 152.569 32.3068C153.178 31.1203 154.043 30.1955 155.164 29.5327C156.284 28.8632 157.616 28.5284 159.161 28.5284C160.493 28.5284 161.66 28.7704 162.661 29.2543C163.662 29.7382 164.454 30.4176 165.037 31.2926C165.621 32.1676 165.942 33.1951 166.002 34.375H162.005C161.892 33.6127 161.594 32.9995 161.11 32.5355C160.632 32.0649 160.006 31.8295 159.23 31.8295C158.574 31.8295 158.001 32.0085 157.51 32.3665C157.026 32.7178 156.649 33.2315 156.377 33.9077C156.105 34.5838 155.969 35.4025 155.969 36.3636C155.969 37.3381 156.102 38.1667 156.367 38.8494C156.639 39.5322 157.02 40.0526 157.51 40.4105C158.001 40.7685 158.574 40.9474 159.23 40.9474C159.714 40.9474 160.149 40.848 160.533 40.6491C160.924 40.4503 161.246 40.1619 161.498 39.7841C161.756 39.3996 161.925 38.9389 162.005 38.402H166.002C165.935 39.5687 165.617 40.5961 165.047 41.4844C164.484 42.366 163.705 43.0554 162.711 43.5526C161.716 44.0497 160.54 44.2983 159.181 44.2983ZM181.421 33.0824L177.543 33.321C177.477 32.9896 177.335 32.6913 177.116 32.4261C176.897 32.1544 176.609 31.9389 176.251 31.7798C175.899 31.6141 175.478 31.5312 174.988 31.5312C174.332 31.5312 173.778 31.6705 173.327 31.9489C172.877 32.2206 172.651 32.5852 172.651 33.0426C172.651 33.4072 172.797 33.7154 173.089 33.9673C173.38 34.2192 173.881 34.4214 174.59 34.5739L177.354 35.1307C178.839 35.4356 179.946 35.9261 180.675 36.6023C181.405 37.2784 181.769 38.1667 181.769 39.267C181.769 40.268 181.474 41.1463 180.884 41.902C180.301 42.6577 179.499 43.2476 178.478 43.6719C177.464 44.0895 176.294 44.2983 174.968 44.2983C172.946 44.2983 171.335 43.8774 170.136 43.0355C168.942 42.187 168.243 41.0336 168.038 39.5753L172.204 39.3565C172.33 39.973 172.635 40.4437 173.119 40.7685C173.603 41.0866 174.222 41.2457 174.978 41.2457C175.72 41.2457 176.317 41.1032 176.768 40.8182C177.225 40.5265 177.457 40.152 177.464 39.6946C177.457 39.3101 177.295 38.9953 176.977 38.75C176.658 38.4981 176.168 38.3059 175.505 38.1733L172.86 37.6463C171.369 37.348 170.258 36.831 169.529 36.0952C168.807 35.3594 168.445 34.4214 168.445 33.2812C168.445 32.3002 168.71 31.455 169.241 30.7457C169.778 30.0365 170.53 29.4896 171.498 29.1051C172.472 28.7206 173.612 28.5284 174.918 28.5284C176.847 28.5284 178.365 28.9361 179.472 29.7514C180.586 30.5668 181.236 31.6771 181.421 33.0824Z" fill="#404040"/>
</svg>
