<svg width="25" height="25" viewBox="0 0 25 25" fill="none" xmlns="http://www.w3.org/2000/svg">
<path d="M9.97067 0C4.4584 0 0 4.3562 0 9.74212C0 15.128 4.4584 19.4842 9.97067 19.4842C11.9387 19.4842 13.7601 18.9201 15.3043 17.962L22.5073 25L25 22.5645L17.8886 15.634C19.167 13.9953 19.9413 11.965 19.9413 9.74212C19.9413 4.3562 15.483 0 9.97067 0ZM9.97067 2.29226C14.1931 2.29226 17.5953 5.61649 17.5953 9.74212C17.5953 13.8677 14.1931 17.192 9.97067 17.192C5.74826 17.192 2.34604 13.8677 2.34604 9.74212C2.34604 5.61649 5.74826 2.29226 9.97067 2.29226Z" fill="black" fill-opacity="0.75"/>
</svg>
